<svg class="svg-icon" fill="#eeeeee" style="width: 1em; height: 1em;vertical-align: middle;overflow: hidden;" viewBox="0 0 1024 1024" version="1.1" xmlns="http://www.w3.org/2000/svg"><path d="M818.1 872.1c-15.4 0-30.7-5.9-42.4-17.6l-613-612.9c-23.4-23.4-23.4-61.4 0-84.9 23.4-23.4 61.4-23.4 84.9 0l612.9 612.9c23.4 23.4 23.4 61.4 0 84.9a59.914 59.914 0 0 1-42.4 17.6z" fill="" /><path d="M205.1 872.1c-15.4 0-30.7-5.9-42.4-17.6-23.4-23.4-23.4-61.4 0-84.9l612.9-612.9c23.4-23.4 61.4-23.4 84.9 0 23.4 23.4 23.4 61.4 0 84.9L247.6 854.5c-11.7 11.7-27.1 17.6-42.5 17.6z" fill="" /><path d="M818.1 872.1c-15.4 0-30.7-5.9-42.4-17.6l-613-612.9c-23.4-23.4-23.4-61.4 0-84.9 23.4-23.4 61.4-23.4 84.9 0l612.9 612.9c23.4 23.4 23.4 61.4 0 84.9a59.914 59.914 0 0 1-42.4 17.6z" fill="" /><path d="M205.1 872.1c-15.4 0-30.7-5.9-42.4-17.6-23.4-23.4-23.4-61.4 0-84.9l612.9-612.9c23.4-23.4 61.4-23.4 84.9 0 23.4 23.4 23.4 61.4 0 84.9L247.6 854.5c-11.7 11.7-27.1 17.6-42.5 17.6z" fill="" /><path d="M818.1 872.1c-15.4 0-30.7-5.9-42.4-17.6l-613-612.9c-23.4-23.4-23.4-61.4 0-84.9 23.4-23.4 61.4-23.4 84.9 0l612.9 612.9c23.4 23.4 23.4 61.4 0 84.9a59.914 59.914 0 0 1-42.4 17.6z" fill="" /><path d="M205.1 872.1c-15.4 0-30.7-5.9-42.4-17.6-23.4-23.4-23.4-61.4 0-84.9l612.9-612.9c23.4-23.4 61.4-23.4 84.9 0 23.4 23.4 23.4 61.4 0 84.9L247.6 854.5c-11.7 11.7-27.1 17.6-42.5 17.6z" fill="" /><path d="M818.1 872.1c-15.4 0-30.7-5.9-42.4-17.6l-613-612.9c-23.4-23.4-23.4-61.4 0-84.9 23.4-23.4 61.4-23.4 84.9 0l612.9 612.9c23.4 23.4 23.4 61.4 0 84.9a59.914 59.914 0 0 1-42.4 17.6z" fill="" /><path d="M205.1 872.1c-15.4 0-30.7-5.9-42.4-17.6-23.4-23.4-23.4-61.4 0-84.9l612.9-612.9c23.4-23.4 61.4-23.4 84.9 0 23.4 23.4 23.4 61.4 0 84.9L247.6 854.5c-11.7 11.7-27.1 17.6-42.5 17.6z" fill="" /></svg>
