<svg class="svg-icon" fill="#eeeeee" style="width: 1em; height: 1em;vertical-align: middle;overflow: hidden;" viewBox="0 0 1024 1024" version="1.1" xmlns="http://www.w3.org/2000/svg"><path d="M99.643233 956.909644c6.725969 0 13.840279-1.645932 21.130697-4.890382l204.951272-91.210372c17.649178-7.868413 41.258932-24.086149 54.918587-37.766124l559.68913-560.380015c10.771936-10.785483 16.714451-25.160859 16.714451-40.47322 0-15.310103-5.944772-29.685479-16.714451-40.457415l-102.47225-102.61449c-10.771936-10.771936-25.113445-16.707677-40.410001-16.707678-15.289783 0-29.631292 5.935741-40.405486 16.721225L183.084535 653.830119c-13.82899 13.817701-29.881907 37.917396-37.325854 56.022648L67.508048 900.132892c-8.489306 20.663333-2.490347 34.621017 1.840102 41.103145 6.658235 9.95913 17.703365 15.673608 30.295083 15.673607m240.608617-174.326551h-0.013547l-102.472249-102.598686L711.724479 205.425409l102.472249 102.600944-473.944878 474.55674zM797.450668 119.588588l102.476765 102.600943-45.320704 45.377149-102.474507-102.600944 45.318446-45.377148zM198.613644 731.647255c0.837642-2.025241 1.980086-4.330449 3.237677-6.705649l88.769696 88.880328-153.958989 68.483415 61.951616-150.658094z" /></svg>
