<svg class="svg-icon" fill="#eeeeee" style="width: 1.0029296875em; height: 1em;vertical-align: middle;overflow: hidden;" viewBox="0 0 1027 1024" version="1.1" xmlns="http://www.w3.org/2000/svg"><path d="M513.066667 1024c-136.533333 0-264.533333-51.2-362.666667-149.333333-200.533333-200.533333-200.533333-524.8 0-725.333333C248.533333 51.2 376.533333 0 513.066667 0s264.533333 51.2 362.666667 149.333333c200.533333 200.533333 200.533333 524.8 0 725.333333C777.6 972.8 649.6 1024 513.066667 1024zM513.066667 85.333333C397.866667 85.333333 291.2 128 210.133333 209.066667 43.733333 375.466667 43.733333 648.533333 210.133333 814.933333 291.2 896 397.866667 938.666667 513.066667 938.666667s221.866667-42.666667 302.933333-123.733333c166.4-166.4 166.4-435.2 0-601.6C734.933333 128 628.266667 85.333333 513.066667 85.333333z"  /><path d="M513.066667 768c-25.6 0-42.666667-17.066667-42.666667-42.666667L470.4 298.666667c0-25.6 17.066667-42.666667 42.666667-42.666667s42.666667 17.066667 42.666667 42.666667l0 426.666667C555.733333 750.933333 538.666667 768 513.066667 768z"  /><path d="M726.4 554.666667 299.733333 554.666667c-25.6 0-42.666667-17.066667-42.666667-42.666667s17.066667-42.666667 42.666667-42.666667l426.666667 0c25.6 0 42.666667 17.066667 42.666667 42.666667S752 554.666667 726.4 554.666667z"  /></svg>
